HIERARCHY
ROOT Hips
{
	OFFSET 53.585999 -8.379066 96.221100
	CHANNELS 6 Xposition Yposition Zposition Xrotation Yrotation Zrotation
	JOINT spine
	{
		OFFSET 0.000000 -0.467661 8.132492
		CHANNELS 3 Xrotation Yrotation Zrotation
		JOINT spine1
		{
			OFFSET 0.000000 -0.000002 10.349800
			CHANNELS 3 Xrotation Yrotation Zrotation
			JOINT spine2
			{
				OFFSET 0.000000 -0.000001 9.916992
				CHANNELS 3 Xrotation Yrotation Zrotation
				JOINT Neck
				{
					OFFSET 0.000000 -1.213904 25.461006
					CHANNELS 3 Xrotation Yrotation Zrotation
					JOINT Head
					{
						OFFSET 0.000000 -0.000001 7.692444
						CHANNELS 3 Xrotation Yrotation Zrotation
						End Site
						{
							OFFSET 0.000000 6.140627 18.619995
						}
					}
				}
				JOINT RightShoulder
				{
					OFFSET -4.175751 0.581443 10.709602
					CHANNELS 3 Xrotation Yrotation Zrotation
					JOINT RightArm
					{
						OFFSET 0.000000 -0.000003 14.046600
						CHANNELS 3 Xrotation Yrotation Zrotation
						JOINT RightArmRoll
						{
							OFFSET 0.000000 -0.000001 7.090973
							CHANNELS 3 Xrotation Yrotation Zrotation
							JOINT RightForeArm
							{
								OFFSET 0.000000 -0.000003 20.653503
								CHANNELS 3 Xrotation Yrotation Zrotation
								JOINT RightForeArmRoll
								{
									OFFSET 0.000000 -0.000002 7.957184
									CHANNELS 3 Xrotation Yrotation Zrotation
									JOINT RightHand
									{
										OFFSET 0.000000 -0.000002 15.968292
										CHANNELS 3 Xrotation Yrotation Zrotation
										End Site
										{
											OFFSET 0.000000 0.000000 0.100006
										}
									}
								}
							}
						}
					}
				}
				JOINT LeftShoulder
				{
					OFFSET 4.175751 0.581443 10.709602
					CHANNELS 3 Xrotation Yrotation Zrotation
					JOINT LeftArm
					{
						OFFSET 0.000000 -0.000003 14.046600
						CHANNELS 3 Xrotation Yrotation Zrotation
						JOINT LeftArmRoll
						{
							OFFSET 0.000000 -0.000001 7.090973
							CHANNELS 3 Xrotation Yrotation Zrotation
							JOINT LeftForeArm
							{
								OFFSET 0.000000 -0.000003 20.653503
								CHANNELS 3 Xrotation Yrotation Zrotation
								JOINT LeftForeArmRoll
								{
									OFFSET 0.000000 -0.000002 7.957184
									CHANNELS 3 Xrotation Yrotation Zrotation
									JOINT LeftHand
									{
										OFFSET 0.000000 -0.000002 15.968292
										CHANNELS 3 Xrotation Yrotation Zrotation
										End Site
										{
											OFFSET 0.000000 0.000000 0.100006
										}
									}
								}
							}
						}
					}
				}
			}
		}
	}
	JOINT RightUpLeg
	{
		OFFSET -7.208340 1.108840 -1.321823
		CHANNELS 3 Xrotation Yrotation Zrotation
		JOINT RightUpLegRoll
		{
			OFFSET 0.000000 -0.000003 18.723801
			CHANNELS 3 Xrotation Yrotation Zrotation
			JOINT RightLeg
			{
				OFFSET 0.000000 0.000004 -23.186600
				CHANNELS 3 Xrotation Yrotation Zrotation
				JOINT RightLegRoll
				{
					OFFSET 0.000000 -0.000004 23.262398
					CHANNELS 3 Xrotation Yrotation Zrotation
					JOINT RightFoot
					{
						OFFSET 0.000000 -0.000003 19.362099
						CHANNELS 3 Xrotation Yrotation Zrotation
						JOINT RightToeBase
						{
							OFFSET 0.000000 -0.000003 16.185699
							CHANNELS 3 Xrotation Yrotation Zrotation
							End Site
							{
								OFFSET 0.006859 0.903521 7.838623
							}
						}
					}
				}
			}
		}
	}
	JOINT LeftUpLeg
	{
		OFFSET 7.208340 1.108840 -1.321823
		CHANNELS 3 Xrotation Yrotation Zrotation
		JOINT LeftUpLegRoll
		{
			OFFSET 0.000000 -0.000003 18.723900
			CHANNELS 3 Xrotation Yrotation Zrotation
			JOINT LeftLeg
			{
				OFFSET 0.000000 -0.000004 23.186501
				CHANNELS 3 Xrotation Yrotation Zrotation
				JOINT LeftLegRoll
				{
					OFFSET 0.000000 -0.000004 23.477493
					CHANNELS 3 Xrotation Yrotation Zrotation
					JOINT LeftFoot
					{
						OFFSET 0.000000 -0.000003 19.147003
						CHANNELS 3 Xrotation Yrotation Zrotation
						JOINT LeftToeBase
						{
							OFFSET 0.000000 -0.000003 16.185699
							CHANNELS 3 Xrotation Yrotation Zrotation
							End Site
							{
								OFFSET -0.030746 0.903521 7.838623
							}
						}
					}
				}
			}
		}
	}
}
MOTION
Frames: 6
Frame Time: 0.041667
53.620903 -7.599936 96.237389 -3.499574 0.753270 0.251430 -1.702347 -0.322056 0.077964 0.596017 -0.644748 0.150169 2.241121 -0.642953 0.158125 14.782563 4.223986 -6.624190 -14.706763 -2.623525 -6.754116 -17.138720 -25.275366 -19.777825 -126.656392 -159.612724 -74.998496 -0.000002 -0.000003 -0.000003 63.571651 1.425401 3.499531 0.000001 0.000004 -3.004827 -5.000178 -7.999486 0.000073 -17.398326 39.818186 20.359549 -138.543666 172.400641 90.539246 -0.000000 -0.000008 0.000005 54.735346 -0.329965 0.049985 -0.000000 -0.000009 3.006240 -5.000210 7.998849 -0.000154 -1.310236 -173.700644 3.085762 -179.999991 0.000005 -1.030001 169.727865 -1.188639 -0.545401 0.000002 -0.000002 0.081627 69.478767 6.463456 3.217025 25.456957 -7.355616 0.000001 0.009295 174.807996 -0.999226 -0.000020 -0.000005 -1.010720 -11.768065 1.477100 0.632355 -0.000002 0.000001 -0.209115 72.474605 -6.387015 -3.318303 25.457561 7.355621 -0.001058 
53.621304 -7.599781 96.239601 -3.512980 0.751135 0.254342 -1.704126 -0.320493 0.078238 0.591805 -0.642630 0.150594 2.236909 -0.640841 0.158491 14.815423 4.191288 -6.657866 -14.607075 -2.634067 -6.784056 -17.143097 -25.368079 -19.785948 -126.659465 -159.556183 -74.988374 -0.000002 0.000001 -0.000003 63.225108 1.490657 3.445501 0.000000 0.000002 -3.004828 -5.000180 -7.999491 0.000069 -17.392211 39.876109 20.352104 -138.489503 172.266605 90.667804 0.000001 -0.000007 0.000005 54.456835 -0.376291 0.100897 -0.000001 -0.000008 3.006239 -5.000211 7.998852 -0.000155 -1.293632 -173.697598 3.091416 -179.999991 0.000005 -1.030001 169.733766 -1.191619 -0.545815 0.000001 -0.000002 0.080960 69.473419 6.462109 3.219091 25.456957 -7.355615 -0.000001 0.023393 174.809007 -1.001838 -0.000020 -0.000004 -1.010890 -11.765467 1.477741 0.632456 -0.000002 0.000001 -0.209033 72.472453 -6.386956 -3.317918 25.457561 7.355620 -0.001059 
53.617905 -7.599876 96.240799 -3.526444 0.749052 0.257176 -1.705946 -0.318935 0.078492 0.587497 -0.640476 0.150962 2.232608 -0.638695 0.158795 14.850578 4.157800 -6.691413 -14.508688 -2.644430 -6.813801 -17.147096 -25.463176 -19.793437 -126.663358 -159.499288 -74.979754 0.000000 -0.000001 -0.000003 62.874063 1.556750 3.391286 0.000001 0.000000 -3.004830 -5.000177 -7.999488 0.000072 -17.386849 39.934815 20.345568 -138.435203 172.131682 90.796607 0.000002 -0.000005 0.000006 54.174468 -0.422909 0.151583 -0.000001 -0.000009 3.006239 -5.000210 7.998851 -0.000156 -1.277022 -173.693555 3.097071 -179.999991 0.000005 -1.030002 169.739449 -1.194597 -0.545234 0.000001 -0.000002 0.080294 69.468092 6.460798 3.221163 25.456955 -7.355614 0.000000 0.037459 174.811001 -1.004338 -0.000020 -0.000005 -1.011080 -11.763068 1.478273 0.632555 -0.000002 0.000001 -0.208954 72.470513 -6.386891 -3.317419 25.457563 7.355620 -0.001058 
53.618706 -7.597208 96.243591 -3.539921 0.747075 0.259907 -1.707805 -0.317410 0.078704 0.583131 -0.638328 0.151247 2.228237 -0.636553 0.159008 14.887931 4.123758 -6.724536 -14.411798 -2.654744 -6.843071 -17.150764 -25.560175 -19.800575 -126.667224 -159.441983 -74.972869 0.000002 0.000001 -0.000001 62.518982 1.623446 3.336836 -0.000001 0.000001 -3.004829 -5.000178 -7.999484 0.000071 -17.381914 39.994156 20.339644 -138.381163 171.995829 90.925507 0.000000 -0.000008 0.000004 53.888546 -0.469724 0.201942 -0.000001 -0.000008 3.006250 -5.000211 7.998847 -0.000155 -1.260428 -173.690522 3.102728 -179.999991 0.000004 -1.030001 169.745241 -1.198545 -0.544813 0.000002 -0.000002 0.079630 69.462641 6.459479 3.223341 25.456955 -7.355614 -0.000000 0.051380 174.811998 -1.006736 -0.000020 -0.000004 -1.011260 -11.761072 1.478675 0.632658 -0.000002 0.000001 -0.208878 72.468772 -6.386789 -3.317204 25.457566 7.355620 -0.001059 
53.610603 -7.597217 96.244499 -3.553342 0.745257 0.262506 -1.709693 -0.315946 0.078852 0.578745 -0.636222 0.151413 2.223856 -0.634458 0.159105 14.927587 4.089382 -6.756941 -14.316814 -2.665163 -6.871590 -17.154336 -25.658454 -19.807415 -126.670188 -159.384145 -74.968190 -0.000001 0.000003 0.000000 62.160281 1.690498 3.282093 0.000000 0.000003 -3.004841 -5.000178 -7.999488 0.000070 -17.377465 40.054227 20.334392 -138.327573 171.858952 91.054270 0.000001 -0.000007 0.000004 53.599274 -0.516672 0.251869 -0.000000 -0.000007 3.006249 -5.000210 7.998852 -0.000154 -1.243904 -173.687476 3.108321 -179.999991 0.000005 -1.030001 169.751115 -1.201524 -0.544226 0.000002 -0.000002 0.078971 69.457225 6.458228 3.225430 25.456953 -7.355614 -0.000001 0.065042 174.814006 -1.009019 -0.000020 -0.000004 -1.011450 -11.759374 1.478939 0.632763 -0.000002 0.000001 -0.208806 72.467255 -6.386711 -3.316876 25.457563 7.355621 -0.001058 
53.611103 -7.594915 96.244400 -3.566659 0.743652 0.264946 -1.711603 -0.314572 0.078914 0.574378 -0.634203 0.151434 2.219496 -0.632447 0.159056 14.969345 4.054929 -6.788325 -14.223728 -2.675843 -6.899043 -17.157727 -25.757352 -19.814029 -126.671350 -159.325705 -74.966162 0.000002 0.000001 -0.000000 61.798636 1.757658 3.226999 0.000000 0.000000 -3.004838 -5.000178 -7.999489 0.000071 -17.373425 40.114835 20.329715 -138.274803 171.720982 91.182534 -0.000002 -0.000007 0.000006 53.306724 -0.563664 0.301276 -0.000000 -0.000008 3.006249 -5.000210 7.998850 -0.000154 -1.227479 -173.685440 3.113823 -179.999991 0.000005 -1.030999 169.757112 -1.204504 -0.544636 0.000002 -0.000002 0.078323 69.451699 6.457003 3.227529 25.456955 -7.355615 -0.000000 0.078328 174.815004 -1.011208 -0.000020 -0.000004 -1.011650 -11.758271 1.479043 0.632871 -0.000002 0.000001 -0.208737 72.465937 -6.386629 -3.316739 25.457561 7.355619 -0.001058 
